<svg xmlns="http://www.w3.org/2000/svg">
  <symbol id="home" viewBox="0 0 24 24"><path d="M3 10.8 12 3l9 7.8v9.7a.5.5 0 0 1-.5.5H15v-6H9v6H3.5a.5.5 0 0 1-.5-.5z" fill="none" stroke="currentColor" stroke-width="1.7" stroke-linejoin="round"/></symbol>
  <symbol id="grid" viewBox="0 0 24 24"><rect x="3" y="3" width="7" height="7" rx="1.5" fill="none" stroke="currentColor" stroke-width="1.7"/><rect x="14" y="3" width="7" height="7" rx="1.5" fill="none" stroke="currentColor" stroke-width="1.7"/><rect x="3" y="14" width="7" height="7" rx="1.5" fill="none" stroke="currentColor" stroke-width="1.7"/><rect x="14" y="14" width="7" height="7" rx="1.5" fill="none" stroke="currentColor" stroke-width="1.7"/></symbol>
  <symbol id="box" viewBox="0 0 24 24"><path d="m12 3 8 4.5v9L12 21l-8-4.5v-9zM4.2 7.6 12 12l7.8-4.4M12 12v9" fill="none" stroke="currentColor" stroke-width="1.7" stroke-linejoin="round"/></symbol>
  <symbol id="users" viewBox="0 0 24 24"><path d="M16 20v-1.7c0-2.4-2.2-4.3-5-4.3s-5 1.9-5 4.3V20M11 11a4 4 0 1 0 0-8 4 4 0 0 0 0 8ZM17 12c2.2.2 4 1.8 4 3.8V18M17 3.3a3.5 3.5 0 0 1 0 6.4" fill="none" stroke="currentColor" stroke-width="1.7" stroke-linecap="round"/></symbol>
  <symbol id="sparkles" viewBox="0 0 24 24"><path d="M12 2.5 14 8l5.5 2-5.5 2-2 5.5L10 12l-5.5-2L10 8zM19 15.5l.9 2.6 2.6.9-2.6.9-.9 2.6-.9-2.6-2.6-.9 2.6-.9z" fill="none" stroke="currentColor" stroke-width="1.6" stroke-linejoin="round"/></symbol>
  <symbol id="news" viewBox="0 0 24 24"><path d="M5 4h13a1 1 0 0 1 1 1v14H6a2 2 0 0 1-2-2V5a1 1 0 0 1 1-1Zm1 0v13a2 2 0 0 0 2 2M9 8h6M9 12h6M9 16h4" fill="none" stroke="currentColor" stroke-width="1.7" stroke-linecap="round"/></symbol>
  <symbol id="settings" viewBox="0 0 24 24"><path d="M9.6 3.5h4.8l.5 2a7 7 0 0 1 1.5.9l2-.6 2.4 4.1-1.5 1.4a7 7 0 0 1 0 1.8l1.5 1.4-2.4 4.1-2-.6a7 7 0 0 1-1.5.9l-.5 2H9.6l-.5-2a7 7 0 0 1-1.5-.9l-2 .6-2.4-4.1 1.5-1.4a7 7 0 0 1 0-1.8L3.2 9.9l2.4-4.1 2 .6a7 7 0 0 1 1.5-.9z" fill="none" stroke="currentColor" stroke-width="1.5" stroke-linejoin="round"/><circle cx="12" cy="12" r="2.8" fill="none" stroke="currentColor" stroke-width="1.7"/></symbol>
  <symbol id="terminal" viewBox="0 0 24 24"><rect x="3" y="4" width="18" height="16" rx="2" fill="none" stroke="currentColor" stroke-width="1.7"/><path d="m7 9 3 3-3 3M12.5 15H17" fill="none" stroke="currentColor" stroke-width="1.7" stroke-linecap="round" stroke-linejoin="round"/></symbol>
  <symbol id="search" viewBox="0 0 24 24"><circle cx="11" cy="11" r="6.5" fill="none" stroke="currentColor" stroke-width="1.7"/><path d="m16 16 4.5 4.5" fill="none" stroke="currentColor" stroke-width="1.7" stroke-linecap="round"/></symbol>
  <symbol id="download" viewBox="0 0 24 24"><path d="M12 3v12m0 0 4-4m-4 4-4-4M5 20h14" fill="none" stroke="currentColor" stroke-width="1.8" stroke-linecap="round" stroke-linejoin="round"/></symbol>
  <symbol id="trash" viewBox="0 0 24 24"><path d="M4 7h16M9 7V4h6v3m-9 0 1 14h10l1-14M10 11v6M14 11v6" fill="none" stroke="currentColor" stroke-width="1.7" stroke-linecap="round" stroke-linejoin="round"/></symbol>
  <symbol id="folder" viewBox="0 0 24 24"><path d="M3 6.5A1.5 1.5 0 0 1 4.5 5H9l2 2h8.5A1.5 1.5 0 0 1 21 8.5v9A1.5 1.5 0 0 1 19.5 19h-15A1.5 1.5 0 0 1 3 17.5z" fill="none" stroke="currentColor" stroke-width="1.7" stroke-linejoin="round"/></symbol>
  <symbol id="play" viewBox="0 0 24 24"><path d="m8 5 11 7-11 7z" fill="currentColor"/></symbol>
  <symbol id="chevron-right" viewBox="0 0 24 24"><path d="m9 5 7 7-7 7" fill="none" stroke="currentColor" stroke-width="1.8" stroke-linecap="round" stroke-linejoin="round"/></symbol>
  <symbol id="plus" viewBox="0 0 24 24"><path d="M12 5v14M5 12h14" fill="none" stroke="currentColor" stroke-width="1.8" stroke-linecap="round"/></symbol>
  <symbol id="check" viewBox="0 0 24 24"><path d="m5 12 4.5 4.5L19 7" fill="none" stroke="currentColor" stroke-width="1.9" stroke-linecap="round" stroke-linejoin="round"/></symbol>
  <symbol id="pause" viewBox="0 0 24 24"><path d="M8 5v14M16 5v14" fill="none" stroke="currentColor" stroke-width="2.4" stroke-linecap="round"/></symbol>
  <symbol id="x" viewBox="0 0 24 24"><path d="m6 6 12 12M18 6 6 18" fill="none" stroke="currentColor" stroke-width="1.8" stroke-linecap="round"/></symbol>
  <symbol id="minus" viewBox="0 0 24 24"><path d="M5 12h14" fill="none" stroke="currentColor" stroke-width="1.8" stroke-linecap="round"/></symbol>
  <symbol id="maximize" viewBox="0 0 24 24"><rect x="5" y="5" width="14" height="14" rx="1" fill="none" stroke="currentColor" stroke-width="1.7"/></symbol>
  <symbol id="refresh" viewBox="0 0 24 24"><path d="M20 11a8 8 0 0 0-14-5L4 8m0 0h5M4 8V3M4 13a8 8 0 0 0 14 5l2-2m0 0h-5m5 0v5" fill="none" stroke="currentColor" stroke-width="1.7" stroke-linecap="round" stroke-linejoin="round"/></symbol>
  <symbol id="external" viewBox="0 0 24 24"><path d="M14 4h6v6M20 4l-9 9M18 13v6a1 1 0 0 1-1 1H5a1 1 0 0 1-1-1V7a1 1 0 0 1 1-1h6" fill="none" stroke="currentColor" stroke-width="1.7" stroke-linecap="round" stroke-linejoin="round"/></symbol>
  <symbol id="shield" viewBox="0 0 24 24"><path d="M12 3 5 6v5c0 4.6 2.8 8 7 10 4.2-2 7-5.4 7-10V6z" fill="none" stroke="currentColor" stroke-width="1.7" stroke-linejoin="round"/></symbol>
  <symbol id="palette" viewBox="0 0 24 24"><path d="M12 3a9 9 0 1 0 0 18h1.5a2 2 0 0 0 0-4H12a2 2 0 0 1 0-4h3.5A5.5 5.5 0 0 0 21 7.5C21 5 17 3 12 3Z" fill="none" stroke="currentColor" stroke-width="1.7"/><circle cx="7.5" cy="9" r="1" fill="currentColor"/><circle cx="10.5" cy="6.5" r="1" fill="currentColor"/><circle cx="14.5" cy="6.5" r="1" fill="currentColor"/></symbol>
  <symbol id="store" viewBox="0 0 24 24"><path d="M5 9h14l-1 12H6L5 9Zm2 0V7a5 5 0 0 1 10 0v2" fill="none" stroke="currentColor" stroke-width="1.7" stroke-linecap="round" stroke-linejoin="round"/><path d="M9 13h6" fill="none" stroke="currentColor" stroke-width="1.7" stroke-linecap="round"/></symbol>
  <symbol id="discord" viewBox="0 0 24 24"><path d="M7.1 6.4A15 15 0 0 1 10 5.6l.4.8a8 8 0 0 1 3.2 0l.4-.8a15 15 0 0 1 2.9.8c1.8 2.7 2.4 5.3 2.1 7.9a12 12 0 0 1-3.6 2.2l-.9-1.2c.6-.2 1.2-.5 1.7-.9-3.1 1.5-5.3 1.5-8.4 0 .5.4 1.1.7 1.7.9l-.9 1.2A12 12 0 0 1 5 14.3c-.3-2.6.3-5.2 2.1-7.9Z" fill="none" stroke="currentColor" stroke-width="1.45" stroke-linejoin="round"/><circle cx="9.5" cy="11.5" r="1.1" fill="currentColor"/><circle cx="14.5" cy="11.5" r="1.1" fill="currentColor"/></symbol>
  <symbol id="link" viewBox="0 0 24 24"><path d="M10 14 14 10M8.5 16.5l-1 1a3.5 3.5 0 0 1-5-5l3-3a3.5 3.5 0 0 1 5 0M15.5 7.5l1-1a3.5 3.5 0 0 1 5 5l-3 3a3.5 3.5 0 0 1-5 0" fill="none" stroke="currentColor" stroke-width="1.7" stroke-linecap="round"/></symbol>
</svg>
